<mxfile host="app.diagrams.net" agent="Mozilla/5.0 (Windows NT 10.0; Win64; x64) AppleWebKit/537.36 (KHTML, like Gecko) Chrome/137.0.0.0 Safari/537.36 Edg/137.0.0.0" version="27.1.6">
  <diagram name="Page-1" id="7ZdMrmdLdeHvyDz1XKsx">
    <mxGraphModel dx="864" dy="474" grid="1" gridSize="10" guides="1" tooltips="1" connect="1" arrows="1" fold="1" page="1" pageScale="1" pageWidth="850" pageHeight="1100" math="0" shadow="0">
      <root>
        <mxCell id="0" />
        <mxCell id="1" parent="0" />
        <mxCell id="RXolTfbHnqWYJygK1G4t-3" style="edgeStyle=orthogonalEdgeStyle;rounded=0;orthogonalLoop=1;jettySize=auto;html=1;exitX=0;exitY=0.5;exitDx=0;exitDy=0;flowAnimation=0;" parent="1" source="RXolTfbHnqWYJygK1G4t-1" target="RXolTfbHnqWYJygK1G4t-2" edge="1">
          <mxGeometry relative="1" as="geometry" />
        </mxCell>
        <mxCell id="RXolTfbHnqWYJygK1G4t-19" style="edgeStyle=orthogonalEdgeStyle;rounded=0;orthogonalLoop=1;jettySize=auto;html=1;exitX=1;exitY=0.5;exitDx=0;exitDy=0;entryX=0.5;entryY=0;entryDx=0;entryDy=0;" parent="1" source="RXolTfbHnqWYJygK1G4t-1" target="RXolTfbHnqWYJygK1G4t-18" edge="1">
          <mxGeometry relative="1" as="geometry" />
        </mxCell>
        <mxCell id="RXolTfbHnqWYJygK1G4t-1" value="Директор" style="rounded=0;whiteSpace=wrap;html=1;fontSize=23;fillColor=#008a00;fontColor=#ffffff;strokeColor=#005700;" parent="1" vertex="1">
          <mxGeometry x="305" y="20" width="240" height="100" as="geometry" />
        </mxCell>
        <mxCell id="RXolTfbHnqWYJygK1G4t-7" style="edgeStyle=orthogonalEdgeStyle;rounded=0;orthogonalLoop=1;jettySize=auto;html=1;exitX=1;exitY=0.5;exitDx=0;exitDy=0;entryX=1;entryY=0.5;entryDx=0;entryDy=0;" parent="1" source="RXolTfbHnqWYJygK1G4t-2" target="RXolTfbHnqWYJygK1G4t-2" edge="1">
          <mxGeometry relative="1" as="geometry" />
        </mxCell>
        <mxCell id="RXolTfbHnqWYJygK1G4t-16" style="edgeStyle=orthogonalEdgeStyle;rounded=0;orthogonalLoop=1;jettySize=auto;html=1;exitX=0;exitY=0.5;exitDx=0;exitDy=0;entryX=0.5;entryY=0;entryDx=0;entryDy=0;" parent="1" source="RXolTfbHnqWYJygK1G4t-2" target="RXolTfbHnqWYJygK1G4t-13" edge="1">
          <mxGeometry relative="1" as="geometry" />
        </mxCell>
        <mxCell id="RXolTfbHnqWYJygK1G4t-22" style="edgeStyle=orthogonalEdgeStyle;rounded=0;orthogonalLoop=1;jettySize=auto;html=1;exitX=1;exitY=0.5;exitDx=0;exitDy=0;entryX=0;entryY=0.5;entryDx=0;entryDy=0;shape=link;width=30;" parent="1" source="RXolTfbHnqWYJygK1G4t-2" target="RXolTfbHnqWYJygK1G4t-18" edge="1">
          <mxGeometry relative="1" as="geometry" />
        </mxCell>
        <mxCell id="RXolTfbHnqWYJygK1G4t-24" style="edgeStyle=orthogonalEdgeStyle;rounded=0;orthogonalLoop=1;jettySize=auto;html=1;exitX=0.5;exitY=1;exitDx=0;exitDy=0;entryX=0.5;entryY=0;entryDx=0;entryDy=0;" parent="1" source="RXolTfbHnqWYJygK1G4t-2" target="RXolTfbHnqWYJygK1G4t-23" edge="1">
          <mxGeometry relative="1" as="geometry" />
        </mxCell>
        <mxCell id="RXolTfbHnqWYJygK1G4t-2" value="" style="rounded=0;whiteSpace=wrap;html=1;" parent="1" vertex="1">
          <mxGeometry x="180" y="190" width="190" height="80" as="geometry" />
        </mxCell>
        <mxCell id="RXolTfbHnqWYJygK1G4t-13" value="" style="rounded=0;whiteSpace=wrap;html=1;" parent="1" vertex="1">
          <mxGeometry x="30" y="325" width="130" height="70" as="geometry" />
        </mxCell>
        <mxCell id="RXolTfbHnqWYJygK1G4t-31" style="edgeStyle=orthogonalEdgeStyle;rounded=0;orthogonalLoop=1;jettySize=auto;html=1;exitX=1;exitY=0.5;exitDx=0;exitDy=0;" parent="1" source="RXolTfbHnqWYJygK1G4t-18" target="RXolTfbHnqWYJygK1G4t-30" edge="1">
          <mxGeometry relative="1" as="geometry" />
        </mxCell>
        <mxCell id="RXolTfbHnqWYJygK1G4t-18" value="" style="rounded=0;whiteSpace=wrap;html=1;" parent="1" vertex="1">
          <mxGeometry x="490" y="190" width="190" height="80" as="geometry" />
        </mxCell>
        <mxCell id="RXolTfbHnqWYJygK1G4t-23" value="" style="rounded=0;whiteSpace=wrap;html=1;" parent="1" vertex="1">
          <mxGeometry x="210" y="325" width="130" height="70" as="geometry" />
        </mxCell>
        <mxCell id="RXolTfbHnqWYJygK1G4t-29" style="edgeStyle=orthogonalEdgeStyle;rounded=0;orthogonalLoop=1;jettySize=auto;html=1;exitX=0.5;exitY=0;exitDx=0;exitDy=0;endArrow=oval;endFill=1;" parent="1" source="RXolTfbHnqWYJygK1G4t-25" edge="1">
          <mxGeometry relative="1" as="geometry">
            <mxPoint x="444.8620689655172" y="250" as="targetPoint" />
          </mxGeometry>
        </mxCell>
        <mxCell id="RXolTfbHnqWYJygK1G4t-33" style="edgeStyle=orthogonalEdgeStyle;rounded=0;orthogonalLoop=1;jettySize=auto;html=1;exitX=1;exitY=0.5;exitDx=0;exitDy=0;entryX=0;entryY=0.5;entryDx=0;entryDy=0;" parent="1" source="RXolTfbHnqWYJygK1G4t-25" target="RXolTfbHnqWYJygK1G4t-32" edge="1">
          <mxGeometry relative="1" as="geometry" />
        </mxCell>
        <mxCell id="RXolTfbHnqWYJygK1G4t-35" style="edgeStyle=orthogonalEdgeStyle;rounded=0;orthogonalLoop=1;jettySize=auto;html=1;exitX=0;exitY=0.5;exitDx=0;exitDy=0;entryX=0.5;entryY=0;entryDx=0;entryDy=0;" parent="1" source="RXolTfbHnqWYJygK1G4t-25" target="RXolTfbHnqWYJygK1G4t-34" edge="1">
          <mxGeometry relative="1" as="geometry" />
        </mxCell>
        <mxCell id="RXolTfbHnqWYJygK1G4t-37" style="edgeStyle=orthogonalEdgeStyle;rounded=0;orthogonalLoop=1;jettySize=auto;html=1;exitX=0.5;exitY=1;exitDx=0;exitDy=0;entryX=0.5;entryY=0;entryDx=0;entryDy=0;" parent="1" source="RXolTfbHnqWYJygK1G4t-25" target="RXolTfbHnqWYJygK1G4t-36" edge="1">
          <mxGeometry relative="1" as="geometry" />
        </mxCell>
        <mxCell id="RXolTfbHnqWYJygK1G4t-25" value="" style="rounded=0;whiteSpace=wrap;html=1;" parent="1" vertex="1">
          <mxGeometry x="340" y="435" width="210" height="100" as="geometry" />
        </mxCell>
        <mxCell id="RXolTfbHnqWYJygK1G4t-30" value="" style="rounded=0;whiteSpace=wrap;html=1;" parent="1" vertex="1">
          <mxGeometry x="620" y="325" width="190" height="80" as="geometry" />
        </mxCell>
        <mxCell id="RXolTfbHnqWYJygK1G4t-32" value="" style="rounded=0;whiteSpace=wrap;html=1;" parent="1" vertex="1">
          <mxGeometry x="620" y="450" width="130" height="70" as="geometry" />
        </mxCell>
        <mxCell id="RXolTfbHnqWYJygK1G4t-34" value="" style="rounded=0;whiteSpace=wrap;html=1;" parent="1" vertex="1">
          <mxGeometry x="160" y="550" width="180" height="80" as="geometry" />
        </mxCell>
        <mxCell id="RXolTfbHnqWYJygK1G4t-43" style="edgeStyle=orthogonalEdgeStyle;rounded=0;orthogonalLoop=1;jettySize=auto;html=1;exitX=1;exitY=0.5;exitDx=0;exitDy=0;entryX=0.5;entryY=0;entryDx=0;entryDy=0;" parent="1" source="RXolTfbHnqWYJygK1G4t-36" target="RXolTfbHnqWYJygK1G4t-42" edge="1">
          <mxGeometry relative="1" as="geometry" />
        </mxCell>
        <mxCell id="RXolTfbHnqWYJygK1G4t-44" style="edgeStyle=orthogonalEdgeStyle;rounded=0;orthogonalLoop=1;jettySize=auto;html=1;exitX=0;exitY=0.5;exitDx=0;exitDy=0;entryX=0.5;entryY=0;entryDx=0;entryDy=0;" parent="1" source="RXolTfbHnqWYJygK1G4t-36" target="RXolTfbHnqWYJygK1G4t-38" edge="1">
          <mxGeometry relative="1" as="geometry" />
        </mxCell>
        <mxCell id="RXolTfbHnqWYJygK1G4t-45" style="edgeStyle=orthogonalEdgeStyle;rounded=0;orthogonalLoop=1;jettySize=auto;html=1;exitX=0.25;exitY=1;exitDx=0;exitDy=0;entryX=0.5;entryY=0;entryDx=0;entryDy=0;" parent="1" source="RXolTfbHnqWYJygK1G4t-36" target="RXolTfbHnqWYJygK1G4t-39" edge="1">
          <mxGeometry relative="1" as="geometry" />
        </mxCell>
        <mxCell id="RXolTfbHnqWYJygK1G4t-46" style="edgeStyle=orthogonalEdgeStyle;rounded=0;orthogonalLoop=1;jettySize=auto;html=1;exitX=0.75;exitY=1;exitDx=0;exitDy=0;entryX=0.5;entryY=0;entryDx=0;entryDy=0;" parent="1" source="RXolTfbHnqWYJygK1G4t-36" target="RXolTfbHnqWYJygK1G4t-41" edge="1">
          <mxGeometry relative="1" as="geometry" />
        </mxCell>
        <mxCell id="RXolTfbHnqWYJygK1G4t-36" value="" style="rounded=0;whiteSpace=wrap;html=1;" parent="1" vertex="1">
          <mxGeometry x="345" y="660" width="200" height="90" as="geometry" />
        </mxCell>
        <mxCell id="RXolTfbHnqWYJygK1G4t-38" value="" style="rounded=1;whiteSpace=wrap;html=1;" parent="1" vertex="1">
          <mxGeometry x="60" y="820" width="170" height="90" as="geometry" />
        </mxCell>
        <mxCell id="RXolTfbHnqWYJygK1G4t-39" value="" style="rounded=1;whiteSpace=wrap;html=1;" parent="1" vertex="1">
          <mxGeometry x="255" y="820" width="170" height="90" as="geometry" />
        </mxCell>
        <mxCell id="RXolTfbHnqWYJygK1G4t-41" value="" style="rounded=1;whiteSpace=wrap;html=1;" parent="1" vertex="1">
          <mxGeometry x="460" y="820" width="170" height="90" as="geometry" />
        </mxCell>
        <mxCell id="RXolTfbHnqWYJygK1G4t-42" value="" style="rounded=1;whiteSpace=wrap;html=1;" parent="1" vertex="1">
          <mxGeometry x="660" y="820" width="170" height="90" as="geometry" />
        </mxCell>
      </root>
    </mxGraphModel>
  </diagram>
</mxfile>
